<?xml version="1.0" encoding="utf-8" standalone="no"?>
<!DOCTYPE svg PUBLIC "-//W3C//DTD SVG 1.1//EN"
  "http://www.w3.org/Graphics/SVG/1.1/DTD/svg11.dtd">
<svg xmlns:xlink="http://www.w3.org/1999/xlink" width="523.026409pt" height="264.364719pt" viewBox="0 0 523.026409 264.364719" xmlns="http://www.w3.org/2000/svg" version="1.1">
 <metadata>
  <rdf:RDF xmlns:dc="http://purl.org/dc/elements/1.1/" xmlns:cc="http://creativecommons.org/ns#" xmlns:rdf="http://www.w3.org/1999/02/22-rdf-syntax-ns#">
   <cc:Work>
    <dc:type rdf:resource="http://purl.org/dc/dcmitype/StillImage"/>
    <dc:date>2026-08-26T19:04:15.424257</dc:date>
    <dc:format>image/svg+xml</dc:format>
    <dc:creator>
     <cc:Agent>
      <dc:title>Matplotlib v3.5.2, https://matplotlib.org/</dc:title>
     </cc:Agent>
    </dc:creator>
   </cc:Work>
  </rdf:RDF>
 </metadata>
 <defs>
  <style type="text/css">*{stroke-linejoin: round; stroke-linecap: butt}</style>
 </defs>
 <g id="figure_1">
  <g id="patch_1">
   <path d="M 0 264.364719 
L 523.026409 264.364719 
L 523.026409 0 
L 0 0 
z
" style="fill: #ffffff"/>
  </g>
  <g id="axes_1">
   <g id="patch_2">
    <path d="M 7.709981 97.7277 
L 59.084749 97.7277 
Q 62.167235 97.7277 62.167235 94.6338 
L 62.167235 53.3818 
Q 62.167235 50.2879 59.084749 50.2879 
L 7.709981 50.2879 
Q 4.627495 50.2879 4.627495 53.3818 
L 4.627495 94.6338 
Q 4.627495 97.7277 7.709981 97.7277 
z
" clip-path="url(#pe4d6851eec)" style="fill: #f3f6f9; stroke: #4c78a8; stroke-linejoin: miter"/>
   </g>
   <g id="patch_3">
    <path d="M 79.634656 97.7277 
L 131.009423 97.7277 
Q 134.091909 97.7277 134.091909 94.6338 
L 134.091909 53.3818 
Q 134.091909 50.2879 131.009423 50.2879 
L 79.634656 50.2879 
Q 76.55217 50.2879 76.55217 53.3818 
L 76.55217 94.6338 
Q 76.55217 97.7277 79.634656 97.7277 
z
" clip-path="url(#pe4d6851eec)" style="fill: #f3f6f9; stroke: #4c78a8; stroke-linejoin: miter"/>
   </g>
   <g id="patch_4">
    <path d="M 151.55933 97.7277 
L 202.934097 97.7277 
Q 206.016583 97.7277 206.016583 94.6338 
L 206.016583 53.3818 
Q 206.016583 50.2879 202.934097 50.2879 
L 151.55933 50.2879 
Q 148.476844 50.2879 148.476844 53.3818 
L 148.476844 94.6338 
Q 148.476844 97.7277 151.55933 97.7277 
z
" clip-path="url(#pe4d6851eec)" style="fill: #f3f6f9; stroke: #4c78a8; stroke-linejoin: miter"/>
   </g>
   <g id="patch_5">
    <path d="M 79.634656 204.9829 
L 131.009423 204.9829 
Q 134.091909 204.9829 134.091909 201.889 
L 134.091909 160.637 
Q 134.091909 157.5431 131.009423 157.5431 
L 79.634656 157.5431 
Q 76.55217 157.5431 76.55217 160.637 
L 76.55217 201.889 
Q 76.55217 204.9829 79.634656 204.9829 
z
" clip-path="url(#pe4d6851eec)" style="fill: #f3f6f9; stroke: #4c78a8; stroke-linejoin: miter"/>
   </g>
   <g id="text_1">
    <text style="font: 6.7px 'DejaVu Sans'" transform="translate(15.971084 68.354047)">24 eligible</text>
    <text style="font: 6.7px 'DejaVu Sans'" transform="translate(11.93381 75.856581)">pre-outcome</text>
    <text style="font: 6.7px 'DejaVu Sans'" transform="translate(18.137068 83.359116)">variables</text>
   </g>
   <g id="text_2">
    <text style="font: 6.7px 'DejaVu Sans'" transform="translate(77.097242 72.105314)">25 outer-training</text>
    <text style="font: 6.7px 'DejaVu Sans'" transform="translate(83.457008 79.607848)">L1 selections</text>
   </g>
   <g id="text_3">
    <text style="font: 6.7px 'DejaVu Sans'" transform="translate(154.443682 72.105314)">Stable core +</text>
    <text style="font: 6.7px 'DejaVu Sans'" transform="translate(149.274214 79.607848)">clinical ablations</text>
   </g>
   <g id="text_4">
    <text style="font: 6.7px 'DejaVu Sans'" transform="translate(79.59561 175.609247)">Paired lock rule</text>
    <text style="font: 6.7px 'DejaVu Sans'" transform="translate(87.00068 183.111781)">AUC, Brier,</text>
    <text style="font: 6.7px 'DejaVu Sans'" transform="translate(78.252469 190.614316)">calibration, DCA</text>
   </g>
   <g id="patch_6">
    <path d="M 61.08405 74.0078 
Q 69.360718 74.0078 76.519352 74.0078 
" style="fill: none; stroke: #e45756; stroke-linecap: round"/>
    <path d="M 73.119352 72.3078 
L 76.519352 74.0078 
L 73.119352 75.7078 
" style="fill: none; stroke: #e45756; stroke-linecap: round"/>
   </g>
   <g id="patch_7">
    <path d="M 133.008724 74.0078 
Q 141.285392 74.0078 148.444026 74.0078 
" style="fill: none; stroke: #e45756; stroke-linecap: round"/>
    <path d="M 145.044026 72.3078 
L 148.444026 74.0078 
L 145.044026 75.7078 
" style="fill: none; stroke: #e45756; stroke-linecap: round"/>
   </g>
   <g id="patch_8">
    <path d="M 162.57405 96.142479 
Q 135.1181 127.636897 108.396838 158.288561 
" style="fill: none; stroke: #e45756; stroke-linecap: round"/>
    <path d="M 111.912492 156.842818 
L 108.396838 158.288561 
L 109.349636 154.608592 
" style="fill: none; stroke: #e45756; stroke-linecap: round"/>
   </g>
  </g>
  <g id="axes_2">
   <g id="patch_9">
    <path d="M 329.679069 232.828 
L 516.496405 232.828 
L 516.496405 26.568 
L 329.679069 26.568 
z
" style="fill: #ffffff"/>
   </g>
   <g id="patch_10">
    <path d="M 329.679069 223.452545 
L 344.189154 223.452545 
L 344.189154 210.740065 
L 329.679069 210.740065 
z
" clip-path="url(#p157208ee56)" style="fill: #aeb7c4"/>
   </g>
   <g id="patch_11">
    <path d="M 329.679069 207.561945 
L 351.444196 207.561945 
L 351.444196 194.849464 
L 329.679069 194.849464 
z
" clip-path="url(#p157208ee56)" style="fill: #aeb7c4"/>
   </g>
   <g id="patch_12">
    <path d="M 329.679069 191.671344 
L 351.444196 191.671344 
L 351.444196 178.958863 
L 329.679069 178.958863 
z
" clip-path="url(#p157208ee56)" style="fill: #aeb7c4"/>
   </g>
   <g id="patch_13">
    <path d="M 329.679069 175.780743 
L 365.95428 175.780743 
L 365.95428 163.068262 
L 329.679069 163.068262 
z
" clip-path="url(#p157208ee56)" style="fill: #aeb7c4"/>
   </g>
   <g id="patch_14">
    <path d="M 329.679069 159.890142 
L 394.974449 159.890142 
L 394.974449 147.177661 
L 329.679069 147.177661 
z
" clip-path="url(#p157208ee56)" style="fill: #aeb7c4"/>
   </g>
   <g id="patch_15">
    <path d="M 329.679069 143.999541 
L 409.484533 143.999541 
L 409.484533 131.28706 
L 329.679069 131.28706 
z
" clip-path="url(#p157208ee56)" style="fill: #aeb7c4"/>
   </g>
   <g id="patch_16">
    <path d="M 329.679069 128.10894 
L 438.504702 128.10894 
L 438.504702 115.396459 
L 329.679069 115.396459 
z
" clip-path="url(#p157208ee56)" style="fill: #aeb7c4"/>
   </g>
   <g id="patch_17">
    <path d="M 329.679069 112.218339 
L 496.545039 112.218339 
L 496.545039 99.505858 
L 329.679069 99.505858 
z
" clip-path="url(#p157208ee56)" style="fill: #e45756"/>
   </g>
   <g id="patch_18">
    <path d="M 329.679069 96.327738 
L 511.055124 96.327738 
L 511.055124 83.615257 
L 329.679069 83.615257 
z
" clip-path="url(#p157208ee56)" style="fill: #e45756"/>
   </g>
   <g id="patch_19">
    <path d="M 329.679069 80.437137 
L 511.055124 80.437137 
L 511.055124 67.724656 
L 329.679069 67.724656 
z
" clip-path="url(#p157208ee56)" style="fill: #e45756"/>
   </g>
   <g id="patch_20">
    <path d="M 329.679069 64.546536 
L 511.055124 64.546536 
L 511.055124 51.834055 
L 329.679069 51.834055 
z
" clip-path="url(#p157208ee56)" style="fill: #e45756"/>
   </g>
   <g id="patch_21">
    <path d="M 329.679069 48.655935 
L 511.055124 48.655935 
L 511.055124 35.943455 
L 329.679069 35.943455 
z
" clip-path="url(#p157208ee56)" style="fill: #e45756"/>
   </g>
   <g id="matplotlib.axis_1">
    <g id="xtick_1">
     <g id="line2d_1">
      <defs>
       <path id="m30b2ffc833" d="M 0 0 
L 0 3.5 
" style="stroke: #000000; stroke-width: 0.8"/>
      </defs>
      <g>
       <use xlink:href="#m30b2ffc833" x="329.679069" y="232.828" style="stroke: #000000; stroke-width: 0.8"/>
      </g>
     </g>
     <g id="text_5">
      <text style="font: 8.5px 'DejaVu Sans'; text-anchor: middle" x="329.679069" y="246.286672" transform="rotate(-0, 329.679069, 246.286672)">0.0</text>
     </g>
    </g>
    <g id="xtick_2">
     <g id="line2d_2">
      <g>
       <use xlink:href="#m30b2ffc833" x="365.95428" y="232.828" style="stroke: #000000; stroke-width: 0.8"/>
      </g>
     </g>
     <g id="text_6">
      <text style="font: 8.5px 'DejaVu Sans'; text-anchor: middle" x="365.95428" y="246.286672" transform="rotate(-0, 365.95428, 246.286672)">0.2</text>
     </g>
    </g>
    <g id="xtick_3">
     <g id="line2d_3">
      <g>
       <use xlink:href="#m30b2ffc833" x="402.229491" y="232.828" style="stroke: #000000; stroke-width: 0.8"/>
      </g>
     </g>
     <g id="text_7">
      <text style="font: 8.5px 'DejaVu Sans'; text-anchor: middle" x="402.229491" y="246.286672" transform="rotate(-0, 402.229491, 246.286672)">0.4</text>
     </g>
    </g>
    <g id="xtick_4">
     <g id="line2d_4">
      <g>
       <use xlink:href="#m30b2ffc833" x="438.504702" y="232.828" style="stroke: #000000; stroke-width: 0.8"/>
      </g>
     </g>
     <g id="text_8">
      <text style="font: 8.5px 'DejaVu Sans'; text-anchor: middle" x="438.504702" y="246.286672" transform="rotate(-0, 438.504702, 246.286672)">0.6</text>
     </g>
    </g>
    <g id="xtick_5">
     <g id="line2d_5">
      <g>
       <use xlink:href="#m30b2ffc833" x="474.779913" y="232.828" style="stroke: #000000; stroke-width: 0.8"/>
      </g>
     </g>
     <g id="text_9">
      <text style="font: 8.5px 'DejaVu Sans'; text-anchor: middle" x="474.779913" y="246.286672" transform="rotate(-0, 474.779913, 246.286672)">0.8</text>
     </g>
    </g>
    <g id="xtick_6">
     <g id="line2d_6">
      <g>
       <use xlink:href="#m30b2ffc833" x="511.055124" y="232.828" style="stroke: #000000; stroke-width: 0.8"/>
      </g>
     </g>
     <g id="text_10">
      <text style="font: 8.5px 'DejaVu Sans'; text-anchor: middle" x="511.055124" y="246.286672" transform="rotate(-0, 511.055124, 246.286672)">1.0</text>
     </g>
    </g>
    <g id="text_11">
     <text style="font: 9px 'DejaVu Sans'; text-anchor: middle" x="423.087737" y="258.893" transform="rotate(-0, 423.087737, 258.893)">Selection frequency across 25 outer L1 fits</text>
    </g>
   </g>
   <g id="matplotlib.axis_2">
    <g id="ytick_1">
     <g id="line2d_7">
      <defs>
       <path id="m88ea635b56" d="M 0 0 
L -3.5 0 
" style="stroke: #000000; stroke-width: 0.8"/>
      </defs>
      <g>
       <use xlink:href="#m88ea635b56" x="329.679069" y="217.096305" style="stroke: #000000; stroke-width: 0.8"/>
      </g>
     </g>
     <g id="text_12">
      <text style="font: 8.5px 'DejaVu Sans'; text-anchor: end" x="322.679069" y="220.325641" transform="rotate(-0, 322.679069, 220.325641)">Gender</text>
     </g>
    </g>
    <g id="ytick_2">
     <g id="line2d_8">
      <g>
       <use xlink:href="#m88ea635b56" x="329.679069" y="201.205704" style="stroke: #000000; stroke-width: 0.8"/>
      </g>
     </g>
     <g id="text_13">
      <text style="font: 8.5px 'DejaVu Sans'; text-anchor: end" x="322.679069" y="204.43504" transform="rotate(-0, 322.679069, 204.43504)">Age</text>
     </g>
    </g>
    <g id="ytick_3">
     <g id="line2d_9">
      <g>
       <use xlink:href="#m88ea635b56" x="329.679069" y="185.315103" style="stroke: #000000; stroke-width: 0.8"/>
      </g>
     </g>
     <g id="text_14">
      <text style="font: 8.5px 'DejaVu Sans'; text-anchor: end" x="322.679069" y="188.544439" transform="rotate(-0, 322.679069, 188.544439)">TotalProtein</text>
     </g>
    </g>
    <g id="ytick_4">
     <g id="line2d_10">
      <g>
       <use xlink:href="#m88ea635b56" x="329.679069" y="169.424502" style="stroke: #000000; stroke-width: 0.8"/>
      </g>
     </g>
     <g id="text_15">
      <text style="font: 8.5px 'DejaVu Sans'; text-anchor: end" x="322.679069" y="172.653838" transform="rotate(-0, 322.679069, 172.653838)">APTT</text>
     </g>
    </g>
    <g id="ytick_5">
     <g id="line2d_11">
      <g>
       <use xlink:href="#m88ea635b56" x="329.679069" y="153.533901" style="stroke: #000000; stroke-width: 0.8"/>
      </g>
     </g>
     <g id="text_16">
      <text style="font: 8.5px 'DejaVu Sans'; text-anchor: end" x="322.679069" y="156.763237" transform="rotate(-0, 322.679069, 156.763237)">EmbolicAgent Epirubicin</text>
     </g>
    </g>
    <g id="ytick_6">
     <g id="line2d_12">
      <g>
       <use xlink:href="#m88ea635b56" x="329.679069" y="137.6433" style="stroke: #000000; stroke-width: 0.8"/>
      </g>
     </g>
     <g id="text_17">
      <text style="font: 8.5px 'DejaVu Sans'; text-anchor: end" x="322.679069" y="140.872636" transform="rotate(-0, 322.679069, 140.872636)">TotalBileAcid</text>
     </g>
    </g>
    <g id="ytick_7">
     <g id="line2d_13">
      <g>
       <use xlink:href="#m88ea635b56" x="329.679069" y="121.7527" style="stroke: #000000; stroke-width: 0.8"/>
      </g>
     </g>
     <g id="text_18">
      <text style="font: 8.5px 'DejaVu Sans'; text-anchor: end" x="322.679069" y="124.982035" transform="rotate(-0, 322.679069, 124.982035)">PIVKA II</text>
     </g>
    </g>
    <g id="ytick_8">
     <g id="line2d_14">
      <g>
       <use xlink:href="#m88ea635b56" x="329.679069" y="105.862099" style="stroke: #000000; stroke-width: 0.8"/>
      </g>
     </g>
     <g id="text_19">
      <text style="font: 8.5px 'DejaVu Sans'; text-anchor: end" x="322.679069" y="109.091435" transform="rotate(-0, 322.679069, 109.091435)">Hypertension</text>
     </g>
    </g>
    <g id="ytick_9">
     <g id="line2d_15">
      <g>
       <use xlink:href="#m88ea635b56" x="329.679069" y="89.971498" style="stroke: #000000; stroke-width: 0.8"/>
      </g>
     </g>
     <g id="text_20">
      <text style="font: 8.5px 'DejaVu Sans'; text-anchor: end" x="322.679069" y="93.200834" transform="rotate(-0, 322.679069, 93.200834)">Preprocedural NRS</text>
     </g>
    </g>
    <g id="ytick_10">
     <g id="line2d_16">
      <g>
       <use xlink:href="#m88ea635b56" x="329.679069" y="74.080897" style="stroke: #000000; stroke-width: 0.8"/>
      </g>
     </g>
     <g id="text_21">
      <text style="font: 8.5px 'DejaVu Sans'; text-anchor: end" x="322.679069" y="77.310233" transform="rotate(-0, 322.679069, 77.310233)">D-dimer</text>
     </g>
    </g>
    <g id="ytick_11">
     <g id="line2d_17">
      <g>
       <use xlink:href="#m88ea635b56" x="329.679069" y="58.190296" style="stroke: #000000; stroke-width: 0.8"/>
      </g>
     </g>
     <g id="text_22">
      <text style="font: 8.5px 'DejaVu Sans'; text-anchor: end" x="322.679069" y="61.419632" transform="rotate(-0, 322.679069, 61.419632)">Albumin</text>
     </g>
    </g>
    <g id="ytick_12">
     <g id="line2d_18">
      <g>
       <use xlink:href="#m88ea635b56" x="329.679069" y="42.299695" style="stroke: #000000; stroke-width: 0.8"/>
      </g>
     </g>
     <g id="text_23">
      <text style="font: 8.5px 'DejaVu Sans'; text-anchor: end" x="322.679069" y="45.529031" transform="rotate(-0, 322.679069, 45.529031)">Alpha-fetoprotein</text>
     </g>
    </g>
   </g>
   <g id="line2d_19">
    <path d="M 456.642307 232.828 
L 456.642307 26.568 
" clip-path="url(#p157208ee56)" style="fill: none; stroke-dasharray: 3.33,1.44; stroke-dashoffset: 0; stroke: #4c78a8; stroke-width: 0.9"/>
   </g>
   <g id="patch_22">
    <path d="M 329.679069 232.828 
L 329.679069 26.568 
" style="fill: none; stroke: #000000; stroke-width: 0.8; stroke-linejoin: miter; stroke-linecap: square"/>
   </g>
   <g id="patch_23">
    <path d="M 329.679069 232.828 
L 516.496405 232.828 
" style="fill: none; stroke: #000000; stroke-width: 0.8; stroke-linejoin: miter; stroke-linecap: square"/>
   </g>
  </g>
  <g id="text_24">
   <text style="fill: #24364b; font: 700 10.2px 'DejaVu Sans'; text-anchor: middle" x="260.82" y="11.350406" transform="rotate(-0, 260.82, 11.350406)">Predictor eligibility and training-fold stability</text>
  </g>
 </g>
 <defs>
  <clipPath id="pe4d6851eec">
   <rect x="3.6" y="26.568" width="205.499069" height="206.26"/>
  </clipPath>
  <clipPath id="p157208ee56">
   <rect x="329.679069" y="26.568" width="186.817336" height="206.26"/>
  </clipPath>
 </defs>
</svg>
